Coordinates
version=1
nRows=32
nColumns=12
inDegrees=yes

Units are S.I. units (second, meters, Newtons, ...)
Angles are in degrees

endheader
time	SC_y	SC_z	SC_x	AC_y	AC_z	AC_x	GH_y	GH_z	GH_yy	EL_x	PS_y
       0.0              -27.34          4.508          27.55          36.64         -11.69         -11.84          94.58          43.22         -64.41          27.21          14.87
   0.02716              -27.34          4.507          27.54          36.64         -11.69         -11.83          94.54          43.22         -64.41          27.22          14.88
   0.05432              -27.34          4.506          27.54          36.64         -11.69         -11.83          94.51          43.23          -64.4          27.23          14.89
   0.08147              -27.34          4.504          27.54          36.64         -11.69         -11.83          94.47          43.24          -64.4          27.24           14.9
    0.1086              -27.34          4.503          27.54          36.64         -11.69         -11.83          94.43          43.24          -64.4          27.26          14.91
    0.1358              -27.34          4.501          27.53          36.65         -11.69         -11.83          94.39          43.25          -64.4          27.27          14.92
    0.1629              -27.34            4.5          27.53          36.65          -11.7         -11.82          94.34          43.26          -64.4          27.28          14.93
    0.1901              -27.34          4.498          27.53          36.65          -11.7         -11.82          94.29          43.26         -64.39           27.3          14.95
    0.2173              -27.34          4.496          27.52          36.65          -11.7         -11.82          94.24          43.27         -64.39          27.31          14.96
    0.2444              -27.34          4.494          27.52          36.66          -11.7         -11.82          94.19          43.28         -64.39          27.33          14.98
    0.2716              -27.34          4.492          27.51          36.66          -11.7         -11.81          94.13          43.29         -64.38          27.34          14.99
    0.2987              -27.34          4.489          27.51          36.66          -11.7         -11.81          94.06           43.3         -64.38          27.36          15.01
    0.3259              -27.34          4.487           27.5          36.67          -11.7         -11.81          93.99          43.32         -64.38          27.38          15.03
    0.3531              -27.34          4.484           27.5          36.67          -11.7         -11.81          93.92          43.33         -64.37          27.41          15.05
    0.3802              -27.34          4.481          27.49          36.68          -11.7          -11.8          93.84          43.34         -64.37          27.43          15.07
    0.4074              -27.34          4.478          27.48          36.68          -11.7          -11.8          93.75          43.36         -64.36          27.45          15.09
    0.4345              -27.34          4.474          27.48          36.69         -11.71         -11.79          93.65          43.37         -64.36          27.48          15.12
    0.4617              -27.34           4.47          27.47          36.69         -11.71         -11.79          93.55          43.39         -64.35          27.51          15.15
    0.4888              -27.34          4.466          27.46           36.7         -11.71         -11.78          93.44          43.41         -64.35          27.55          15.18
     0.516              -27.34          4.462          27.45          36.71         -11.71         -11.78          93.31          43.43         -64.34          27.58          15.21
    0.5432              -27.34          4.456          27.44          36.71         -11.71         -11.77          93.18          43.45         -64.33          27.62          15.25
    0.5703              -27.34          4.451          27.43          36.72         -11.71         -11.76          93.03          43.48         -64.33          27.67          15.29
    0.5975              -27.34          4.445          27.42          36.73         -11.72         -11.76          92.86           43.5         -64.32          27.72          15.34
    0.6246              -27.33          4.438           27.4          36.74         -11.72         -11.75          92.68          43.54         -64.31          27.77          15.39
    0.6518              -27.33           4.43          27.39          36.75         -11.72         -11.74          92.47          43.57          -64.3          27.83          15.44
    0.6789              -27.33          4.422          27.37          36.76         -11.73         -11.73          92.24          43.61         -64.29           27.9          15.51
    0.7061              -27.33          4.412          27.35          36.78         -11.73         -11.72          91.99          43.65         -64.27          27.97          15.58
    0.7333              -27.33          4.402          27.33          36.79         -11.73          -11.7           91.7           43.7         -64.26          28.05          15.65
    0.7604              -27.33           4.39           27.3          36.81         -11.74         -11.69          91.37          43.75         -64.24          28.15          15.74
    0.7876              -27.33          4.376          27.27          36.83         -11.74         -11.67          91.01          43.81         -64.22          28.26          15.84
    0.8147              -27.33           4.36          27.24          36.86         -11.75         -11.65          90.58          43.89          -64.2          28.38          15.96
    0.8419              -27.33          4.343           27.2          36.88         -11.76         -11.63           90.1          43.97         -64.17          28.52          16.09
